<svg xmlns="http://www.w3.org/2000/svg" viewBox="0 0 1440 320">
  <path fill="#0099ff" fill-opacity="0.8" d="M0,224L30,192C60,160,120,96,180,101.3C240,107,300,181,360,218.7C420,256,480,256,540,229.3C600,203,660,149,720,122.7C780,96,840,96,900,106.7C960,117,1020,139,1080,128C1140,117,1200,75,1260,80C1320,85,1380,139,1410,165.3L1440,192L1440,320L1410,320C1380,320,1320,320,1260,320C1200,320,1140,320,1080,320C1020,320,960,320,900,320C840,320,780,320,720,320C660,320,600,320,540,320C480,320,420,320,360,320C300,320,240,320,180,320C120,320,60,320,30,320L0,320Z"></path>
</svg>
